<?xml version="1.0" standalone="no"?>
<!DOCTYPE svg PUBLIC "-//W3C//DTD SVG 20010904//EN"
 "http://www.w3.org/TR/2001/REC-SVG-20010904/DTD/svg10.dtd">
<svg version="1.0" xmlns="http://www.w3.org/2000/svg"
 width="166.000000pt" height="68.000000pt" color="white" viewBox="0 0 166.000000 68.000000"
 preserveAspectRatio="xMidYMid meet">

<g transform="translate(0.000000,68.000000) scale(0.100000,-0.100000)"
fill="#000000" stroke="none">
<path d="M0 340 l0 -340 830 0 830 0 0 340 0 340 -830 0 -830 0 0 -340z m415
205 c57 -33 100 -90 115 -155 35 -147 -81 -291 -234 -291 -73 0 -129 25 -180
82 -121 135 -63 332 114 390 46 15 137 3 185 -26z m921 -90 c8 -20 -13 -45
-32 -38 -14 5 -19 34 -7 46 11 12 33 7 39 -8z m122 -17 c2 -13 -3 -18 -17 -18
-12 0 -21 -6 -21 -15 0 -10 10 -15 30 -15 27 0 33 -6 54 -52 l23 -53 19 53
c15 42 23 52 41 52 l23 0 -21 -52 c-12 -29 -29 -73 -39 -98 -18 -48 -49 -71
-81 -63 -26 7 -20 38 6 38 26 0 24 33 -5 98 -31 69 -48 62 -52 -20 -3 -60 -5
-68 -23 -68 -18 0 -20 8 -23 68 -2 37 -7 67 -12 67 -6 0 -10 7 -10 15 0 8 5
15 10 15 6 0 10 6 10 13 0 7 7 23 16 35 19 28 67 27 72 0z m-714 2 c27 -10 34
-34 15 -46 -6 -3 -16 -1 -22 5 -14 14 -64 14 -72 1 -10 -16 12 -37 47 -44 69
-14 91 -76 42 -115 -32 -25 -51 -26 -104 -5 -43 17 -47 23 -29 41 9 9 19 8 42
-3 36 -19 80 -11 75 13 -2 10 -24 25 -52 35 -53 19 -66 31 -66 66 0 50 62 76
124 52z m486 -25 c0 -20 5 -25 25 -25 16 0 25 -6 25 -15 0 -9 -10 -15 -26 -15
-24 0 -25 -2 -22 -47 2 -39 6 -48 21 -47 24 2 22 -33 -3 -41 -10 -3 -28 -1
-40 5 -17 9 -20 21 -20 70 0 47 -3 60 -15 60 -8 0 -15 6 -15 14 0 8 7 16 15
20 8 3 15 15 15 26 0 13 7 20 20 20 15 0 20 -7 20 -25z m-277 -46 c52 -63 -13
-168 -86 -140 -26 10 -27 9 -27 -19 0 -23 -4 -30 -20 -30 -19 0 -20 7 -20 106
l0 106 24 -4 c14 -3 31 -1 38 4 20 13 71 0 91 -23z m184 -1 c47 -44 15 -131
-52 -143 -39 -7 -90 24 -99 61 -22 87 84 145 151 82z m201 -60 c-3 -75 -5 -83
-23 -83 -18 0 -20 8 -23 83 l-3 82 26 0 26 0 -3 -82z m307 62 c3 -5 1 -10 -4
-10 -6 0 -11 5 -11 10 0 6 2 10 4 10 3 0 8 -4 11 -10z"/>
<path d="M160 442 c-31 -10 -36 -49 -5 -44 64 9 194 3 235 -13 62 -22 74 -23
78 -2 6 31 -78 60 -188 63 -52 2 -106 0 -120 -4z"/>
<path d="M185 361 c-16 -3 -31 -14 -33 -23 -3 -15 5 -16 70 -11 59 4 86 1 137
-16 71 -25 103 -16 56 15 -54 36 -155 51 -230 35z"/>
<path d="M183 283 c-13 -2 -23 -11 -23 -19 0 -11 12 -12 58 -8 41 5 76 1 116
-10 62 -18 84 -14 51 10 -39 29 -129 41 -202 27z"/>
<path d="M848 335 c-24 -53 27 -98 66 -59 31 30 9 84 -35 84 -11 0 -24 -11
-31 -25z"/>
<path d="M1042 348 c-15 -15 -15 -61 0 -76 26 -26 78 -1 78 38 0 39 -52 64
-78 38z"/>
</g>
</svg>
