<?xml version="1.0" standalone="no"?>
<!DOCTYPE svg PUBLIC "-//W3C//DTD SVG 20010904//EN"
 "http://www.w3.org/TR/2001/REC-SVG-20010904/DTD/svg10.dtd">
<svg version="1.0" xmlns="http://www.w3.org/2000/svg"
 width="512.000000pt" height="512.000000pt" viewBox="0 0 512.000000 512.000000"
 preserveAspectRatio="xMidYMid meet">

<g transform="translate(0.000000,512.000000) scale(0.100000,-0.100000)"
fill="#000000" stroke="none">
<path d="M200 5111 c-71 -22 -137 -77 -173 -145 l-22 -41 0 -2365 0 -2365 22
-40 c25 -47 84 -105 133 -131 34 -18 113 -19 2400 -19 l2365 0 41 22 c50 27
99 76 127 128 l22 40 0 2365 0 2365 -22 40 c-28 52 -77 101 -127 128 l-41 22
-2350 2 c-1292 1 -2361 -2 -2375 -6z m2658 -437 c462 -63 894 -281 1226 -618
320 -327 527 -745 592 -1202 22 -157 22 -439 0 -589 -35 -231 -99 -442 -196
-640 -318 -650 -935 -1091 -1660 -1186 -135 -18 -421 -15 -555 5 -649 99
-1186 452 -1530 1006 -145 235 -244 509 -291 810 -22 143 -22 457 0 600 74
473 279 882 603 1207 479 478 1139 700 1811 607z"/>
<path d="M1965 3573 c-330 -26 -669 -89 -775 -143 -81 -41 -125 -148 -100
-240 16 -60 80 -124 140 -140 48 -13 40 -14 249 35 716 168 1645 74 2240 -227
135 -69 160 -78 208 -78 134 0 221 111 193 248 -10 47 -20 65 -59 102 -94 91
-464 249 -759 325 -197 50 -491 96 -731 115 -122 9 -507 11 -606 3z"/>
<path d="M1965 2839 c-195 -15 -416 -54 -580 -104 -114 -35 -155 -82 -155
-181 0 -52 16 -88 57 -126 50 -47 89 -50 218 -18 287 72 588 100 862 81 437
-30 760 -116 1101 -292 168 -87 202 -95 271 -59 56 28 86 81 85 150 -1 101
-30 132 -204 224 -473 249 -1078 368 -1655 325z"/>
<path d="M1974 2140 c-217 -18 -543 -76 -593 -106 -87 -51 -80 -207 10 -244
42 -18 64 -17 215 13 501 100 950 84 1349 -48 123 -40 222 -84 380 -169 55
-30 77 -37 104 -32 95 15 145 109 107 201 -18 42 -83 85 -250 166 -208 100
-464 175 -721 209 -108 14 -476 21 -601 10z"/>
</g>
</svg>
