<?xml version="1.0" standalone="no"?>
<!DOCTYPE svg PUBLIC "-//W3C//DTD SVG 20010904//EN"
 "http://www.w3.org/TR/2001/REC-SVG-20010904/DTD/svg10.dtd">
<svg version="1.0" xmlns="http://www.w3.org/2000/svg"
 width="100.000000pt" height="100.000000pt" viewBox="0 0 100.000000 100.000000"
 preserveAspectRatio="xMidYMid meet">

<g transform="translate(0.000000,100.000000) scale(0.100000,-0.100000)"
fill="#000000" stroke="none">
<path d="M374 941 c-222 -63 -364 -287 -326 -514 42 -247 272 -416 519 -380
268 39 446 306 378 568 -22 81 -59 145 -121 208 -120 120 -288 165 -450 118z
m271 -266 c135 -35 203 -89 160 -125 -14 -12 -22 -12 -48 -1 -156 66 -292 84
-446 62 -64 -10 -86 -10 -97 0 -18 15 -18 43 0 58 39 32 318 36 431 6z m-4
-165 c36 -12 79 -32 95 -45 24 -20 27 -27 18 -42 -15 -23 -35 -21 -114 13 -59
26 -76 29 -180 29 -63 0 -135 -2 -159 -5 -34 -4 -46 -1 -55 12 -28 45 58 69
224 64 74 -3 125 -10 171 -26z m-78 -125 c83 -22 137 -51 137 -76 0 -30 -25
-33 -72 -10 -67 32 -143 44 -223 36 -123 -12 -120 -13 -120 15 0 22 6 26 50
36 71 17 161 16 228 -1z"/>
</g>
</svg>
