<?xml version="1.0" standalone="no"?>
<!DOCTYPE svg PUBLIC "-//W3C//DTD SVG 20010904//EN"
 "http://www.w3.org/TR/2001/REC-SVG-20010904/DTD/svg10.dtd">
<svg version="1.0" xmlns="http://www.w3.org/2000/svg"
 width="512.000000pt" height="512.000000pt" viewBox="0 0 512.000000 512.000000"
 preserveAspectRatio="xMidYMid meet">

<g transform="translate(0.000000,512.000000) scale(0.100000,-0.100000)"
fill="#000000" stroke="none">
<path d="M2370 5114 c-19 -2 -78 -9 -130 -15 -791 -90 -1522 -586 -1924 -1305
-146 -262 -252 -588 -297 -914 -18 -125 -18 -515 0 -640 105 -762 511 -1409
1146 -1826 609 -400 1377 -517 2090 -317 929 260 1646 1043 1819 1987 156 845
-103 1682 -705 2285 -399 398 -879 639 -1449 726 -100 15 -472 28 -550 19z
m400 -305 c889 -81 1656 -692 1935 -1541 232 -710 105 -1474 -345 -2073 -373
-497 -968 -828 -1590 -884 -738 -68 -1467 232 -1941 798 -290 346 -478 795
-518 1241 -121 1318 904 2453 2229 2469 63 0 167 -4 230 -10z"/>
<path d="M1830 3480 c-330 -30 -800 -115 -800 -144 0 -17 67 -266 73 -272 3
-3 67 8 144 25 319 69 513 91 858 98 176 3 332 1 420 -6 504 -42 924 -153
1323 -352 117 -58 175 -82 181 -75 4 6 39 62 76 125 80 134 90 111 -95 205
-390 199 -800 319 -1300 382 -146 18 -732 27 -880 14z"/>
<path d="M1900 2739 c-229 -13 -650 -75 -674 -99 -8 -8 49 -267 63 -282 4 -4
22 -4 40 2 55 16 269 49 426 65 200 22 580 22 780 0 269 -28 552 -95 770 -182
92 -36 319 -146 343 -166 9 -7 17 -6 26 4 15 17 148 241 144 244 -63 41 -276
147 -393 193 -444 177 -973 253 -1525 221z"/>
<path d="M1880 2003 c-71 -6 -267 -32 -362 -49 -73 -13 -88 -19 -88 -34 0 -17
46 -242 54 -266 3 -8 33 -6 102 7 276 52 659 67 899 34 296 -40 566 -127 775
-249 34 -20 64 -36 65 -34 14 17 155 241 155 247 0 13 -184 111 -305 163 -208
89 -464 152 -719 177 -100 10 -467 12 -576 4z"/>
</g>
</svg>
